<?xml version="1.0" encoding="UTF-8" standalone="no"?>
<svg xmlns:xlink="http://www.w3.org/1999/xlink" height="75.95px" width="76.0px" xmlns="http://www.w3.org/2000/svg">
  <g transform="matrix(1.0, 0.0, 0.0, 1.0, 38.0, 38.0)">
    <path d="M-31.0 -38.0 L31.0 -38.0 Q38.0 -38.0 38.0 -31.0 L38.0 30.95 Q38.0 37.95 31.0 37.95 L-31.0 37.95 Q-38.0 37.95 -38.0 30.95 L-38.0 -31.0 Q-38.0 -38.0 -31.0 -38.0 M31.85 18.3 L15.95 7.15 17.6 4.75 12.3 1.05 13.7 -1.65 2.2 -9.7 0.15 -7.5 -6.1 -11.8 -6.85 -10.75 -8.95 -12.2 -7.55 -14.2 -19.1 -21.15 -19.45 -26.5 -19.55 -26.75 Q-20.3 -27.8 -21.45 -27.8 -22.55 -27.85 -23.15 -26.9 L-25.45 -23.75 -30.0 -26.95 -31.85 -24.3 -22.15 -17.55 -22.95 -16.3 -12.15 -7.6 -10.8 -9.6 -8.7 -8.1 -10.95 -4.9 -9.4 -3.8 -10.7 -1.95 -10.1 -1.5 Q-12.95 0.4 -17.45 1.65 L-15.35 9.15 Q-7.9 7.1 -3.45 3.1 L-2.3 3.9 -1.0 2.05 5.2 6.4 1.4 15.5 7.4 19.65 10.2 13.0 23.0 27.3 Q23.6 27.9 24.4 27.8 25.2 27.7 25.7 27.05 L31.85 18.3 M-21.75 -24.75 L-21.55 -21.0 -23.45 -22.35 -21.75 -24.75" fill="#ffffff" fill-rule="evenodd" stroke="none"/>
  </g>
</svg>
