<?xml version="1.0" encoding="utf-8"?>
<!-- Generator: Adobe Illustrator 24.3.0, SVG Export Plug-In . SVG Version: 6.00 Build 0)  -->
<svg version="1.1" id="Layer_2_1_" xmlns="http://www.w3.org/2000/svg" xmlns:xlink="http://www.w3.org/1999/xlink" x="0px" y="0px"
	 viewBox="0 0 1099.9 1099.9" style="enable-background:new 0 0 1099.9 1099.9;" xml:space="preserve">
<style type="text/css">
	.st0{fill:#FFFFFF;}
</style>
<path class="st0" d="M949.9,835.4c12,12,12,31.5,0,43.5l-71,71c-12,12-31.5,12-43.5,0L571.7,686.3c-12-12-31.5-12-43.5,0L264.5,950
	c-12,12-31.5,12-43.5,0l-71-71c-12-12-12-31.5,0-43.5l263.7-263.7c12-12,12-31.5,0-43.5L150,264.6c-12-12-12-31.5,0-43.5l71-71
	c12-12,31.5-12,43.5,0l263.7,263.7c12,12,31.5,12,43.5,0L835.4,150c12-12,31.5-12,43.5,0l71,71c12,12,12,31.5,0,43.5L686.2,528.2
	c-12,12-12,31.5,0,43.5L949.9,835.4z"/>
</svg>
