<?xml version="1.0" encoding="utf-8"?>
<!-- Generator: Adobe Illustrator 24.3.0, SVG Export Plug-In . SVG Version: 6.00 Build 0)  -->
<svg version="1.1" id="Layer_2_1_" xmlns="http://www.w3.org/2000/svg" xmlns:xlink="http://www.w3.org/1999/xlink" x="0px" y="0px"
	 viewBox="0 0 1099.9 1099.9" style="enable-background:new 0 0 1099.9 1099.9;" xml:space="preserve">
<style type="text/css">
	.st0{fill:#FFFFFF;}
	.st1{display:none;fill:#FFFFFF;}
</style>
<path class="st0" d="M1049.9,0H50C22.5,0,0,22.5,0,50v999.9c0,27.5,22.5,50,50,50h999.9c27.5,0,50-22.5,50-50V50
	C1099.9,22.5,1077.4,0,1049.9,0z M686.2,571.7l263.7,263.7c12,12,12,31.5,0,43.5l-71,71c-12,12-31.5,12-43.5,0L571.7,686.3
	c-12-12-31.5-12-43.5,0L264.5,950c-12,12-31.5,12-43.5,0l-71-71c-12-12-12-31.5,0-43.5l263.7-263.7c12-12,12-31.5,0-43.5L150,264.6
	c-12-12-12-31.5,0-43.5l71-71c12-12,31.5-12,43.5,0l263.7,263.6c12,12,31.5,12,43.5,0L835.4,150c12-12,31.5-12,43.5,0l71,71
	c12,12,12,31.5,0,43.5L686.2,528.2C674.2,540.2,674.2,559.7,686.2,571.7z"/>
<path class="st1" d="M1043.7,902.3c14.8,14.8,14.8,38.9,0,53.7l-87.7,87.7c-14.8,14.8-38.9,14.8-53.7,0L576.8,718.3
	c-14.8-14.8-38.9-14.8-53.7,0l-325.5,325.5c-14.8,14.8-38.9,14.8-53.7,0l-87.7-87.7c-14.8-14.8-14.8-38.9,0-53.7l325.5-325.5
	c14.8-14.8,14.8-38.9,0-53.7L56.2,197.6c-14.8-14.8-14.8-38.9,0-53.7l87.7-87.7c14.8-14.8,38.9-14.8,53.7,0l325.5,325.4
	c14.8,14.8,38.9,14.8,53.7,0L902.3,56.2c14.8-14.8,38.9-14.8,53.7,0l87.7,87.7c14.8,14.8,14.8,38.9,0,53.7L718.2,523.1
	c-14.8,14.8-14.8,38.9,0,53.7L1043.7,902.3z"/>
</svg>
