<?xml version="1.0" encoding="UTF-8" standalone="no"?>
<svg xmlns:xlink="http://www.w3.org/1999/xlink" height="75.95px" width="76.0px" xmlns="http://www.w3.org/2000/svg">
  <g transform="matrix(1.0, 0.0, 0.0, 1.0, 38.0, 38.0)">
    <path d="M-2.4 -1.0 Q-3.15 -1.0 -3.95 -2.35 L-5.2 -5.4 0.3 -5.4 1.7 -1.0 -2.4 -1.0 M27.8 9.9 L22.2 -7.8 26.9 -9.3 25.25 -15.45 24.3 -16.7 22.85 -17.2 13.1 -17.2 13.1 -15.55 -25.4 -15.55 Q-26.4 -15.55 -27.1 -14.8 -27.85 -14.1 -27.85 -13.05 L-27.85 -7.9 Q-27.85 -6.9 -27.1 -6.2 -26.4 -5.45 -25.4 -5.45 L-9.35 -5.4 Q-7.25 2.95 -2.4 2.95 L6.1 2.95 10.1 15.35 Q10.3 16.2 10.95 16.65 11.6 17.2 12.45 17.2 L13.2 17.05 26.3 13.0 Q27.05 12.8 27.5 12.1 28.0 11.45 28.0 10.7 L27.8 9.9 M-31.0 -38.0 L31.0 -38.0 Q38.0 -38.0 38.0 -31.0 L38.0 30.95 Q38.0 37.95 31.0 37.95 L-31.0 37.95 Q-38.0 37.95 -38.0 30.95 L-38.0 -31.0 Q-38.0 -38.0 -31.0 -38.0" fill="#ffffff" fill-rule="evenodd" stroke="none"/>
  </g>
</svg>
