<?xml version="1.0" encoding="utf-8"?>
<!-- Generator: Adobe Illustrator 24.3.0, SVG Export Plug-In . SVG Version: 6.00 Build 0)  -->
<svg version="1.1" id="Layer_1" xmlns="http://www.w3.org/2000/svg" xmlns:xlink="http://www.w3.org/1999/xlink" x="0px" y="0px"
	 viewBox="0 0 76 75.9" style="enable-background:new 0 0 76 75.9;" xml:space="preserve">
<style type="text/css">
	.st0{display:none;fill-rule:evenodd;clip-rule:evenodd;fill:#FFFFFF;}
	.st1{fill-rule:evenodd;clip-rule:evenodd;fill:#FFFFFF;}
</style>
<g transform="matrix(1.0, 0.0, 0.0, 1.0, 38.0, 38.0)">
	<path class="st0" d="M31-38h-62c-4.7,0-7,2.3-7,7v62c0,4.7,2.3,7,7,7h62c4.7,0,7-2.3,7-7v-62C38-35.7,35.7-38,31-38z M25.8-12.6H21
		V-23h-41.9v46H21V10.7h4.8v15.2c0,0.6-0.2,1-0.5,1.5c-0.4,0.4-0.9,0.6-1.5,0.6h-47.5c-0.5,0-1-0.2-1.5-0.6
		c-0.4-0.4-0.5-0.9-0.5-1.5v-51.8c0-0.5,0.2-1,0.5-1.5c0.4-0.4,0.9-0.6,1.5-0.6h47.5c0.6,0,1,0.2,1.5,0.6c0.4,0.4,0.5,0.9,0.5,1.5
		V-12.6z M-16,3.6v-7h26.1L-3-17.7h8.8L22,0.1L5.8,17.9H-3L10.1,3.6H-16z"/>
	<polygon class="st1" points="22,0.1 5.8,17.9 -3,17.9 10.1,3.6 -16,3.6 -16,-3.3 10.1,-3.3 -3,-17.7 5.8,-17.7 	"/>
	<path class="st1" d="M21-12.6V-23h-41.9v46H21V10.7h4.8v15.2c0,0.6-0.2,1-0.5,1.5c-0.4,0.4-0.9,0.6-1.5,0.6h-47.5
		c-0.5,0-1-0.2-1.5-0.6c-0.4-0.4-0.5-0.9-0.5-1.5v-51.8c0-0.5,0.2-1,0.5-1.5c0.4-0.4,0.9-0.6,1.5-0.6h47.5c0.6,0,1,0.2,1.5,0.6
		c0.4,0.4,0.5,0.9,0.5,1.5v13.2H21z"/>
</g>
</svg>
