<?xml version="1.0" encoding="UTF-8" standalone="no"?>
<svg xmlns:xlink="http://www.w3.org/1999/xlink" height="75.95px" width="76.0px" xmlns="http://www.w3.org/2000/svg">
  <g transform="matrix(1.0, 0.0, 0.0, 1.0, 38.0, 38.0)">
    <path d="M-25.75 -25.85 L-25.75 25.9 Q-25.75 26.75 -25.2 27.35 -24.55 27.95 -23.75 27.95 L23.8 27.95 Q24.65 27.95 25.25 27.35 25.8 26.75 25.8 25.9 L25.8 10.65 21.0 10.65 21.0 23.05 -20.9 23.05 -20.9 -23.0 21.0 -23.0 21.0 -12.6 25.8 -12.6 25.8 -25.85 Q25.8 -26.65 25.25 -27.3 24.65 -27.9 23.8 -27.9 L-23.75 -27.9 Q-24.55 -27.9 -25.2 -27.3 -25.75 -26.65 -25.75 -25.85 M-31.0 -38.0 L31.0 -38.0 Q38.0 -38.0 38.0 -31.0 L38.0 30.95 Q38.0 37.95 31.0 37.95 L-31.0 37.95 Q-38.0 37.95 -38.0 30.95 L-38.0 -31.0 Q-38.0 -38.0 -31.0 -38.0 M-3.0 17.95 L5.75 17.95 22.05 0.1 5.8 -17.7 -2.95 -17.7 10.1 -3.35 -16.0 -3.35 -16.0 3.6 10.1 3.6 -3.0 17.95" fill="#ffffff" fill-rule="evenodd" stroke="none"/>
  </g>
</svg>
