<?xml version="1.0" encoding="UTF-8" standalone="no"?>
<svg xmlns:xlink="http://www.w3.org/1999/xlink" height="75.95px" width="76.0px" xmlns="http://www.w3.org/2000/svg">
  <g transform="matrix(1.0, 0.0, 0.0, 1.0, 38.0, 38.0)">
    <path d="M-31.0 -38.0 L31.0 -38.0 Q38.0 -38.0 38.0 -31.0 L38.0 30.95 Q38.0 37.95 31.0 37.95 L-31.0 37.95 Q-38.0 37.95 -38.0 30.95 L-38.0 -31.0 Q-38.0 -38.0 -31.0 -38.0 M22.85 8.6 L-1.85 -11.25 -1.8 -11.25 -10.0 -17.8 -9.0 -19.0 -21.55 -29.05 -22.45 -27.9 -27.0 -31.55 -31.6 -25.8 -27.1 -22.15 -28.0 -21.05 Q-28.6 -20.3 -28.5 -19.3 -28.4 -18.3 -27.6 -17.65 L-18.85 -10.6 Q-18.05 -10.0 -17.05 -10.1 -16.1 -10.25 -15.5 -10.95 L-14.6 -12.1 -6.95 -5.9 -9.5 -2.75 -9.75 -1.8 Q-9.7 -1.3 -9.3 -0.95 L4.7 10.3 Q3.75 15.35 4.15 17.6 4.35 18.95 5.2 19.6 L10.7 24.0 Q11.8 24.85 13.4 24.85 15.3 24.85 17.6 23.75 18.95 26.9 19.15 30.85 L19.5 31.4 20.1 31.55 30.65 29.15 Q31.7 28.9 31.6 27.9 31.35 23.5 30.0 19.4 27.65 12.5 22.85 8.6 M-13.75 23.05 L-14.3 23.05 -14.3 11.15 -21.1 11.15 -21.1 23.05 -21.65 23.05 -21.65 30.2 -21.85 30.2 -21.85 31.55 -13.55 31.55 -13.55 30.2 -13.75 30.2 -13.75 23.05 M-4.1 30.2 L-4.1 23.05 -4.65 23.05 -4.65 11.15 -11.5 11.15 -11.5 23.05 -12.0 23.05 -12.0 30.2 -12.2 30.2 -12.2 31.55 -3.9 31.55 -3.9 30.2 -4.1 30.2 M-23.4 23.05 L-23.95 23.05 -23.95 11.15 -30.8 11.15 -30.8 23.05 -31.3 23.05 -31.3 30.2 -31.5 30.2 -31.5 31.55 -23.2 31.55 -23.2 30.2 -23.4 30.2 -23.4 23.05 M0.8 -5.75 L10.0 1.65 7.4 4.95 -1.8 -2.5 0.8 -5.75 M13.4 20.25 L8.65 16.4 8.9 13.7 14.9 18.5 15.55 19.6 13.4 20.25" fill="#ffffff" fill-rule="evenodd" stroke="none"/>
  </g>
</svg>
