<?xml version="1.0" encoding="UTF-8" standalone="no"?>
<svg xmlns:xlink="http://www.w3.org/1999/xlink" height="75.95px" width="76.0px" xmlns="http://www.w3.org/2000/svg">
  <g transform="matrix(1.0, 0.0, 0.0, 1.0, 38.0, 38.0)">
    <path d="M24.65 5.15 L19.3 1.45 21.25 -2.3 5.2 -13.55 2.35 -10.4 -3.8 -14.75 -5.55 -19.0 Q-5.7 -19.55 -6.25 -19.6 -6.75 -19.65 -7.05 -19.2 L-8.45 -17.3 -21.55 -26.45 -24.1 -22.8 -11.4 -13.9 -12.35 -12.8 -23.1 -20.3 -25.65 -16.65 -15.25 -9.35 -15.8 -8.75 -9.3 -4.2 Q-13.6 -0.05 -22.15 2.3 L-19.25 12.75 Q-6.9 9.3 -0.35 2.1 L2.25 3.9 Q-1.0 8.85 2.35 11.15 L7.1 14.45 4.65 20.25 Q4.4 20.85 4.55 21.45 4.75 22.05 5.25 22.35 L10.7 26.2 Q11.35 26.65 12.15 26.4 12.95 26.2 13.25 25.45 L17.75 14.75 19.95 16.25 25.25 8.7 Q25.85 7.8 25.65 6.8 25.5 5.75 24.65 5.15 M-31.0 -38.0 L31.0 -38.0 Q38.0 -38.0 38.0 -31.0 L38.0 30.95 Q38.0 37.95 31.0 37.95 L-31.0 37.95 Q-38.0 37.95 -38.0 30.95 L-38.0 -31.0 Q-38.0 -38.0 -31.0 -38.0 M8.4 11.3 L4.3 8.35 4.05 8.0 Q4.15 7.3 5.0 5.85 L9.45 8.95 8.4 11.3" fill="#ffffff" fill-rule="evenodd" stroke="none"/>
  </g>
</svg>
