<?xml version="1.0" encoding="UTF-8" standalone="no"?>
<svg xmlns:xlink="http://www.w3.org/1999/xlink" height="75.95px" width="76.0px" xmlns="http://www.w3.org/2000/svg">
  <g transform="matrix(1.0, 0.0, 0.0, 1.0, 38.0, 38.0)">
    <path d="M14.5 15.35 Q15.45 16.05 15.6 17.2 15.85 18.35 15.15 19.35 L14.4 20.4 Q13.65 21.4 13.85 22.55 14.05 23.75 15.05 24.45 L24.05 30.9 29.85 18.45 Q30.1 18.05 29.95 17.6 L29.45 16.9 15.1 6.6 Q14.55 6.2 14.5 5.6 14.4 4.9 14.75 4.35 L15.0 4.0 Q15.45 3.4 15.35 2.6 15.2 1.8 14.55 1.3 L7.15 -4.0 8.3 -5.65 8.95 -5.15 12.9 -1.5 16.1 -5.85 11.3 -8.45 2.3 -14.95 -1.65 -18.65 -4.85 -14.25 -0.05 -11.65 0.55 -11.2 -0.6 -9.6 -27.8 -29.15 -29.55 -26.75 -8.05 -11.3 -10.2 -6.2 Q-10.35 -4.55 -9.65 -3.05 -9.0 -1.6 -7.65 -0.6 L-0.45 4.55 Q-0.45 8.1 0.2 10.2 0.85 12.3 2.3 13.3 L6.3 16.2 6.05 16.5 Q5.7 16.95 5.8 17.45 5.9 17.95 6.35 18.2 L6.95 18.7 7.9 18.95 8.7 18.35 10.4 16.0 Q11.1 15.0 12.3 14.8 13.5 14.6 14.5 15.35 M-31.0 -38.0 L31.0 -38.0 Q38.0 -38.0 38.0 -31.0 L38.0 30.95 Q38.0 37.95 31.0 37.95 L-31.0 37.95 Q-38.0 37.95 -38.0 30.95 L-38.0 -31.0 Q-38.0 -38.0 -31.0 -38.0 M-16.1 26.85 L-16.1 24.0 -18.2 24.0 -18.2 26.85 Q-21.2 26.5 -23.4 24.25 -25.55 22.15 -25.9 19.1 L-23.0 19.1 -23.0 17.05 -25.9 17.05 Q-25.55 14.05 -23.4 11.9 -21.2 9.7 -18.2 9.35 L-18.2 12.25 -16.1 12.25 -16.1 9.35 Q-13.05 9.7 -10.95 11.9 -8.75 14.05 -8.35 17.05 L-11.25 17.05 -11.25 19.1 -8.35 19.1 Q-8.75 22.15 -10.95 24.25 -13.05 26.5 -16.1 26.85 M-4.3 17.0 L-5.7 17.0 Q-6.05 12.9 -9.0 10.0 -11.9 7.0 -16.05 6.6 L-16.05 5.25 -18.25 5.25 -18.25 6.6 Q-22.35 7.0 -25.25 10.0 -28.25 12.9 -28.6 17.0 L-30.0 17.0 -30.0 19.2 -28.6 19.2 Q-28.25 23.35 -25.25 26.25 -22.35 29.15 -18.25 29.55 L-18.25 30.9 -16.05 30.9 -16.05 29.55 Q-11.9 29.15 -9.0 26.25 -6.05 23.35 -5.7 19.2 L-4.3 19.2 -4.3 17.0 M8.3 13.35 L4.3 10.45 Q3.45 9.8 3.05 7.15 L9.5 11.7 8.3 13.35" fill="#ffffff" fill-rule="evenodd" stroke="none"/>
  </g>
</svg>
