<?xml version="1.0" encoding="utf-8"?>
<!-- Generator: Adobe Illustrator 24.3.0, SVG Export Plug-In . SVG Version: 6.00 Build 0)  -->
<svg version="1.1" xmlns="http://www.w3.org/2000/svg" xmlns:xlink="http://www.w3.org/1999/xlink" x="0px" y="0px"
	 viewBox="0 0 76 75.9" style="enable-background:new 0 0 76 75.9;" xml:space="preserve">
<style type="text/css">
	.st0{fill-rule:evenodd;clip-rule:evenodd;fill:#FFFFFF;}
	.st1{fill-rule:evenodd;clip-rule:evenodd;fill:none;stroke:#FFFFFF;stroke-miterlimit:10;}
</style>
<g id="Layer_1">
	<path id="valija" class="st0" d="M29.8,14.4v5h16.2v-5H29.8z M29.8,14.4v5h16.2v-5H29.8z M29.8,14.4v5h16.2v-5H29.8z M29.8,14.4v5
		h16.2v-5H29.8z M29.8,14.4v5h16.2v-5H29.8z M29.8,14.4v5h16.2v-5H29.8z M29.8,14.4v5h16.2v-5H29.8z M29.8,14.4v5h16.2v-5H29.8z
		 M29.8,14.4v5h16.2v-5H29.8z M29.8,14.4v5h16.2v-5H29.8z M29.8,14.4v5h16.2v-5H29.8z M29.8,14.4v5h16.2v-5H29.8z M29.8,14.4v5h16.2
		v-5H29.8z M29.8,14.4v5h16.2v-5H29.8z M29.8,14.4v5h16.2v-5H29.8z M29.8,14.4v5h16.2v-5H29.8z M29.8,14.4v5h16.2v-5H29.8z
		 M29.8,14.4v5h16.2v-5H29.8z M29.8,14.4v5h16.2v-5H29.8z M29.8,14.4v5h16.2v-5H29.8z M29.8,14.4v5h16.2v-5H29.8z M29.8,14.4v5h16.2
		v-5H29.8z M29.8,14.4v5h16.2v-5H29.8z M29.8,14.4v5h16.2v-5H29.8z M29.8,14.4v5h16.2v-5H29.8z M29.8,14.4v5h16.2v-5H29.8z
		 M29.8,14.4v5h16.2v-5H29.8z M29.8,14.4v5h16.2v-5H29.8z M69,0H7C2.3,0,0,2.3,0,7v62c0,4.7,2.3,7,7,7h62c4.7,0,7-2.3,7-7V7
		C76,2.3,73.7,0,69,0z M10.1,54.4V26.9c0-2,0.7-3.8,2.2-5.2s3.2-2.2,5.2-2.2v42.2c-2,0-3.7-0.7-5.2-2.1S10.1,56.4,10.1,54.4z
		 M71.3,58.2c0,3.6-1.3,6.7-3.8,9.3c-2.5,2.6-5.7,3.9-9.3,3.9c-3.6,0-6.8-1.3-9.3-3.9c-1.5-1.5-2.5-3.2-3.2-5
		c-0.1-0.2-0.1-0.4-0.2-0.6h-24v2.1c0,0.6-0.2,1-0.5,1.4c-0.4,0.4-0.9,0.6-1.5,0.6c-0.6,0-1-0.2-1.5-0.6c-0.4-0.4-0.6-0.9-0.6-1.4
		v-2.1h4.1V19.4H25v-5c0-1.2,0.5-2.2,1.5-3.1c1-0.9,2.1-1.3,3.4-1.3h16.2c1.4,0,2.5,0.5,3.5,1.4c0.9,1,1.4,2.1,1.4,3.5v4.4h3.2v21.2
		c0.3-0.1,0.7-0.2,1.2-0.2h2.9v-21h0.1c2,0,3.8,0.7,5.2,2.2c1.5,1.4,2.2,3.2,2.2,5.2V45c0.3-0.1,0.7-0.1,1.1-0.1
		c1.2,0,2.2,0.4,3.1,1.2c0.8,0.8,1.3,1.9,1.3,3.1c0,1.2-0.5,2.3-1.3,3.1L70,52.4C70.8,54.2,71.3,56.1,71.3,58.2z M29.8,19.4h16.2v-5
		H29.8V19.4z M29.8,14.4v5h16.2v-5H29.8z M29.8,14.4v5h16.2v-5H29.8z M29.8,14.4v5h16.2v-5H29.8z M29.8,14.4v5h16.2v-5H29.8z
		 M29.8,14.4v5h16.2v-5H29.8z M29.8,14.4v5h16.2v-5H29.8z M29.8,14.4v5h16.2v-5H29.8z M29.8,14.4v5h16.2v-5H29.8z M29.8,14.4v5h16.2
		v-5H29.8z M29.8,14.4v5h16.2v-5H29.8z M29.8,14.4v5h16.2v-5H29.8z M29.8,14.4v5h16.2v-5H29.8z M29.8,14.4v5h16.2v-5H29.8z
		 M29.8,14.4v5h16.2v-5H29.8z M29.8,14.4v5h16.2v-5H29.8z M29.8,14.4v5h16.2v-5H29.8z M29.8,14.4v5h16.2v-5H29.8z M29.8,14.4v5h16.2
		v-5H29.8z M29.8,14.4v5h16.2v-5H29.8z M29.8,14.4v5h16.2v-5H29.8z M29.8,14.4v5h16.2v-5H29.8z M29.8,14.4v5h16.2v-5H29.8z
		 M29.8,14.4v5h16.2v-5H29.8z M29.8,14.4v5h16.2v-5H29.8z M29.8,14.4v5h16.2v-5H29.8z M29.8,14.4v5h16.2v-5H29.8z"/>
</g>
<g id="Layer_2">
	<path class="st0" d="M67.2,49.5L65,51.9l0.8,1.3c1,1.5,1.4,3.2,1.4,5c0,2.5-0.9,4.7-2.7,6.5c-1.8,1.8-3.9,2.7-6.5,2.7
		c-2.6,0-4.7-0.9-6.5-2.7c-1-1.1-1.8-2.2-2.2-3.5c-0.3-1-0.5-1.9-0.5-3c0-2.4,0.8-4.4,2.4-6.2c1-1.2,2.2-2,3.6-2.5
		c0.4-0.2,0.9-0.3,1.3-0.4c0,0-0.4,0.4-0.4,0.4l-0.5,1.3v4c-0.2,0.2-0.5,0.5-0.7,0.7c-0.5,0.8-0.8,1.6-0.8,2.5c0,1.1,0.4,2.2,1.2,3
		c0.8,0.8,1.8,1.2,3,1.2c0.1,0,0.3,0,0.6,0c0.9-0.1,1.8-0.5,2.4-1.2c0.8-0.8,1.2-1.8,1.2-2.9c0-0.9-0.2-1.7-0.7-2.4
		c-0.2-0.3-0.4-0.5-0.7-0.8v-3.7c0-0.8-0.3-1.5-0.9-2c0,0,0,0,0,0c1.1,0.2,2.1,0.6,3.1,1.2l1.3,0.8l2.4-2.3c0,0,0.1,0,0.2,0
		c0.1,0,0.2,0,0.3,0.1c0.1,0.1,0.1,0.1,0.1,0.2c0,0.1,0,0.2,0,0.2L67.2,49.5z"/>
	<path id="Entre_ambos" class="st1" d="M67.3,49.4c0,0,0,0,0-0.2c0-0.2,0-0.2-0.1-0.2c-0.1-0.1-0.1-0.1-0.3-0.1c-0.1,0-0.1,0-0.2,0
		l-2.4,2.3l-1.3-0.8c-0.9-0.6-2-1-3.1-1.2c0,0,0,0,0,0c0.6,0.5,0.9,1.3,0.9,2V55c0.2,0.2,0.5,0.5,0.7,0.8c0.5,0.7,0.7,1.5,0.7,2.4
		c0,1.1-0.4,2.2-1.2,2.9c-0.7,0.7-1.5,1.1-2.4,1.2c-0.2,0-0.5,0-0.6,0c-1.1,0-2.2-0.4-3-1.2c-0.8-0.8-1.2-1.8-1.2-3
		c0-0.9,0.2-1.7,0.8-2.5c0.2-0.3,0.4-0.5,0.7-0.7v-4l0.5-1.3c0,0,0.4-0.4,0.4-0.4c-0.5,0.1-0.9,0.2-1.3,0.4
		c-1.4,0.5-2.5,1.3-3.6,2.5c-1.6,1.8-2.4,3.8-2.4,6.2c0,1.1,0.2,2.1,0.5,3c0.4,1.3,1.1,2.4,2.2,3.5c1.8,1.8,3.9,2.7,6.5,2.7
		c2.6,0,4.7-0.9,6.5-2.7c1.8-1.8,2.7-3.9,2.7-6.5c0-1.8-0.5-3.4-1.4-5L65,51.9l2.2-2.3L67.3,49.4z"/>
	<path class="st0" d="M68.7,50.9c0.5-0.4,0.7-1,0.7-1.7s-0.2-1.2-0.7-1.7c-0.5-0.5-1-0.7-1.7-0.7c-0.4,0-0.8,0.1-1.1,0.2
		c-0.2,0.1-0.4,0.2-0.6,0.4l-1.2,1.1c-1.5-0.9-3.1-1.5-4.9-1.7v-2.2h1.5c0.3,0,0.6-0.1,0.8-0.4c0.2-0.2,0.3-0.5,0.3-0.8
		c0-0.3-0.1-0.6-0.3-0.9c-0.2-0.2-0.5-0.3-0.8-0.3h-5.4c-0.4,0-0.7,0.1-0.9,0.3c-0.2,0.2-0.3,0.5-0.3,0.9c0,0.3,0.1,0.6,0.3,0.8
		c0.2,0.2,0.5,0.4,0.9,0.4H57V47c-1,0.1-1.9,0.3-2.7,0.6c-1.7,0.6-3.1,1.6-4.4,3c-1.9,2.1-2.9,4.6-2.9,7.5c0,1.3,0.2,2.5,0.6,3.6
		c0.5,1.6,1.4,3,2.7,4.2c2.2,2.2,4.8,3.3,7.9,3.3c3.1,0,5.7-1.1,7.9-3.3c2.2-2.2,3.3-4.8,3.3-7.9c0-2.2-0.6-4.2-1.7-6L68.7,50.9z
		 M57.4,56.1v-4.8l0.2-0.6c0.1-0.1,0.3-0.2,0.6-0.2c0.1,0,0.2,0,0.3,0c0.1,0,0.2,0.1,0.3,0.2c0.2,0.2,0.3,0.4,0.3,0.6v4.8
		c0.4,0.2,0.8,0.4,1,0.8c0.3,0.4,0.4,0.8,0.4,1.3c0,0.6-0.2,1.1-0.7,1.6c-0.3,0.4-0.8,0.6-1.3,0.6c-0.1,0-0.2,0-0.3,0
		c-0.6,0-1.1-0.2-1.6-0.6c-0.4-0.4-0.7-1-0.7-1.6c0-0.5,0.1-0.9,0.4-1.3C56.6,56.5,56.9,56.2,57.4,56.1z M67.3,49.4l-0.1,0.1
		L65,51.9l0.8,1.3c1,1.5,1.4,3.2,1.4,5c0,2.5-0.9,4.7-2.7,6.5c-1.8,1.8-3.9,2.7-6.5,2.7c-2.6,0-4.7-0.9-6.5-2.7
		c-1-1.1-1.8-2.2-2.2-3.5c-0.3-1-0.5-1.9-0.5-3c0-2.4,0.8-4.4,2.4-6.2c1-1.2,2.2-2,3.6-2.5c0.4-0.2,0.9-0.3,1.3-0.4
		c0,0-0.4,0.4-0.4,0.4l-0.5,1.3v4c-0.2,0.2-0.5,0.5-0.7,0.7c-0.5,0.8-0.8,1.6-0.8,2.5c0,1.1,0.4,2.2,1.2,3c0.8,0.8,1.8,1.2,3,1.2
		c0.1,0,0.3,0,0.6,0c0.9-0.1,1.8-0.5,2.4-1.2c0.8-0.8,1.2-1.8,1.2-2.9c0-0.9-0.2-1.7-0.7-2.4c-0.2-0.3-0.4-0.5-0.7-0.8v-3.7
		c0-0.8-0.3-1.5-0.9-2c0,0,0,0,0,0c1.1,0.2,2.1,0.6,3.1,1.2l1.3,0.8l2.4-2.3c0,0,0.1,0,0.2,0c0.1,0,0.2,0,0.3,0.1
		c0.1,0.1,0.1,0.1,0.1,0.2C67.4,49.4,67.3,49.4,67.3,49.4z"/>
</g>
</svg>
