<svg id="Layer_1" data-name="Layer 1" xmlns="http://www.w3.org/2000/svg" viewBox="0 0 76 75.95"><defs><style>.cls-1{fill:#fff;fill-rule:evenodd;}</style></defs><path class="cls-1" d="M34.7,13.1v3.5h6.6V13.1Zm0,0v3.5h6.6V13.1Zm0,0v3.5h6.6V13.1Zm9.75,33.95V39.5H43V50.06l1.87-1.87A1.73,1.73,0,0,1,44.45,47.05Zm5.75-1.37-4.49,4.5,5.34,5.33v-9Zm.85,20.22V60.43l-5.34,5.34,4.49,4.5,4.37-4.37Zm0,0V60.43l-5.34,5.34,4.49,4.5,4.37-4.37ZM50.2,45.68l-4.49,4.5,5.34,5.33v-9Zm-5.75,1.37V39.5H43V50.06l1.87-1.87A1.73,1.73,0,0,1,44.45,47.05ZM34.7,13.1v3.5h6.6V13.1Zm0,0v3.5h6.6V13.1Zm9.75,33.95V39.5H43V50.06l1.87-1.87A1.73,1.73,0,0,1,44.45,47.05Zm5.75-1.37-4.49,4.5,5.34,5.33v-9Zm.85,20.22V60.43l-5.34,5.34,4.49,4.5,4.37-4.37Zm0,0V60.43l-5.34,5.34,4.49,4.5,4.37-4.37ZM50.2,45.68l-4.49,4.5,5.34,5.33v-9Zm-5.75,1.37V39.5H43V50.06l1.87-1.87A1.73,1.73,0,0,1,44.45,47.05ZM34.7,13.1v3.5h6.6V13.1Zm0,0v3.5h6.6V13.1Zm9.75,33.95V39.5H43V50.06l1.87-1.87A1.73,1.73,0,0,1,44.45,47.05Zm5.75-1.37-4.49,4.5,5.34,5.33v-9Zm.85,20.22V60.43l-5.34,5.34,4.49,4.5,4.37-4.37ZM65.18,55.28l-1.87-1-2.2-1.12-1.66-.85,5.14-2.63,1.31-.67v5.51l4.39-4.38-4.49-4.5L58,53.48l-.4-.4v9.79l.4-.4,7.8,7.8,4.49-4.5L62.49,58Zm0,0-1.87-1-2.2-1.12-1.66-.85,5.14-2.63,1.31-.67v5.51l4.39-4.38-4.49-4.5L58,53.48l-.4-.4v9.79l.4-.4,7.8,7.8,4.49-4.5L62.49,58ZM51.05,65.9V60.43l-5.34,5.34,4.49,4.5,4.37-4.37ZM50.2,45.68l-4.49,4.5,5.34,5.33v-9Zm-5.75,1.37V39.5H43V50.06l1.87-1.87A1.73,1.73,0,0,1,44.45,47.05ZM34.7,13.1v3.5h6.6V13.1Zm0,0v3.5h6.6V13.1Zm9.75,33.95V39.5H43V50.06l1.87-1.87A1.73,1.73,0,0,1,44.45,47.05Zm5.75-1.37-4.49,4.5,5.34,5.33v-9Zm.85,20.22V60.43l-5.34,5.34,4.49,4.5,4.37-4.37ZM65.18,55.28l-1.87-1-2.2-1.12-1.66-.85,5.14-2.63,1.31-.67v5.51l4.39-4.38-4.49-4.5L58,53.48l-.4-.4v9.79l.4-.4,7.8,7.8,4.49-4.5L62.49,58Zm0,0-1.87-1-2.2-1.12-1.66-.85,5.14-2.63,1.31-.67v5.51l4.39-4.38-4.49-4.5L58,53.48l-.4-.4v9.79l.4-.4,7.8,7.8,4.49-4.5L62.49,58ZM51.05,65.9V60.43l-5.34,5.34,4.49,4.5,4.37-4.37ZM50.2,45.68l-4.49,4.5,5.34,5.33v-9Zm-5.75,1.37V39.5H43V50.06l1.87-1.87A1.73,1.73,0,0,1,44.45,47.05ZM34.7,13.1v3.5h6.6V13.1Zm0,0v3.5h6.6V13.1Zm9.75,33.95V39.5H43V50.06l1.87-1.87A1.73,1.73,0,0,1,44.45,47.05Zm5.75-1.37-4.49,4.5,5.34,5.33v-9Zm.85,20.22V60.43l-5.34,5.34,4.49,4.5,4.37-4.37ZM65.18,55.28l-1.87-1-2.2-1.12-1.66-.85,5.14-2.63,1.31-.67v5.51l4.39-4.38-4.49-4.5L58,53.48l-.4-.4v9.79l.4-.4,7.8,7.8,4.49-4.5L62.49,58Zm0,0-1.87-1-2.2-1.12-1.66-.85,5.14-2.63,1.31-.67v5.51l4.39-4.38-4.49-4.5L58,53.48l-.4-.4v9.79l.4-.4,7.8,7.8,4.49-4.5L62.49,58ZM51.05,65.9V60.43l-5.34,5.34,4.49,4.5,4.37-4.37Zm0-19.37-.85-.85-4.49,4.5,5.34,5.33Zm-6.6-7H43V50.06l1.87-1.87a1.73,1.73,0,0,1-.42-1.14ZM34.7,16.6h6.6V13.1H34.7ZM69,0H7Q0,0,0,7V69q0,7,7,7H69q7,0,7-7V7Q76,0,69,0ZM65.9,28.25V34.8l-6.45-3.25ZM10.1,55.65v-6.6l6.45,3.3Zm0-10.45V38.65L16.55,42Zm0-10.4V28.25l6.45,3.3Zm63,31L65.8,73.09,58,65.29l-.4.4v.21h-.21L50.2,73.09l-7.32-7.32,7.8-7.8L43,50.3V63.75a2,2,0,0,1-.65,1.55,1.92,1.92,0,0,1-1.4.6,2,2,0,0,1-1.5-.6,2.1,2.1,0,0,1-.6-1.55V48.65H37.2v15.1a2.1,2.1,0,0,1-.6,1.55,2,2,0,0,1-1.5.6,2,2,0,0,1-1.45-.6A2,2,0,0,1,33,63.75V39.5H31.55v7.55A1.71,1.71,0,0,1,29.8,48.8a1.64,1.64,0,0,1-1.2-.5,1.82,1.82,0,0,1-.5-1.25v-11a3.32,3.32,0,0,1,1-2.45,3.36,3.36,0,0,1,2.45-1.05h12.9A3.36,3.36,0,0,1,46.9,33.6,3.25,3.25,0,0,1,48,36.05v9.06l2.25-2.25.85.85V19.6H25V65.9H18.4V17.5a7,7,0,0,1,2.15-5.2,7.16,7.16,0,0,1,5.25-2.2H50.25a7.16,7.16,0,0,1,5.25,2.2,7.06,7.06,0,0,1,2.1,5.2V50.26l.4.4,6.28-6.28L59.45,42l6.45-3.3V43l7.22,7.22L65.32,58ZM33.7,27.05A4.22,4.22,0,0,1,35,24a4.09,4.09,0,0,1,3-1.25A4,4,0,0,1,41,24a4.22,4.22,0,0,1,1.3,3.1A4.36,4.36,0,0,1,38,31.3a4.09,4.09,0,0,1-3-1.25A4,4,0,0,1,33.7,27.05ZM65.9,54.56l4.39-4.38-4.49-4.5L58,53.48l-.4-.4v9.79l.4-.4,7.8,7.8,4.49-4.5L62.49,58l2.69-2.69-1.87-1-2.2-1.12-1.66-.85,5.14-2.63,1.31-.67ZM51.05,65.9V60.43l-5.34,5.34,4.49,4.5,4.37-4.37Zm0-19.37-.85-.85-4.49,4.5,5.34,5.33Zm-6.6-7H43V50.06l1.87-1.87a1.73,1.73,0,0,1-.42-1.14ZM34.7,16.6h6.6V13.1H34.7Zm0-3.5v3.5h6.6V13.1Zm9.75,33.95V39.5H43V50.06l1.87-1.87A1.73,1.73,0,0,1,44.45,47.05Zm5.75-1.37-4.49,4.5,5.34,5.33v-9Zm.85,20.22V60.43l-5.34,5.34,4.49,4.5,4.37-4.37ZM65.18,55.28l-1.87-1-2.2-1.12-1.66-.85,5.14-2.63,1.31-.67v5.51l4.39-4.38-4.49-4.5L58,53.48l-.4-.4v9.79l.4-.4,7.8,7.8,4.49-4.5L62.49,58Zm0,0-1.87-1-2.2-1.12-1.66-.85,5.14-2.63,1.31-.67v5.51l4.39-4.38-4.49-4.5L58,53.48l-.4-.4v9.79l.4-.4,7.8,7.8,4.49-4.5L62.49,58ZM51.05,65.9V60.43l-5.34,5.34,4.49,4.5,4.37-4.37ZM50.2,45.68l-4.49,4.5,5.34,5.33v-9Zm-5.75,1.37V39.5H43V50.06l1.87-1.87A1.73,1.73,0,0,1,44.45,47.05ZM34.7,13.1v3.5h6.6V13.1Zm0,0v3.5h6.6V13.1Zm9.75,33.95V39.5H43V50.06l1.87-1.87A1.73,1.73,0,0,1,44.45,47.05Zm5.75-1.37-4.49,4.5,5.34,5.33v-9Zm.85,20.22V60.43l-5.34,5.34,4.49,4.5,4.37-4.37ZM65.18,55.28l-1.87-1-2.2-1.12-1.66-.85,5.14-2.63,1.31-.67v5.51l4.39-4.38-4.49-4.5L58,53.48l-.4-.4v9.79l.4-.4,7.8,7.8,4.49-4.5L62.49,58Zm0,0-1.87-1-2.2-1.12-1.66-.85,5.14-2.63,1.31-.67v5.51l4.39-4.38-4.49-4.5L58,53.48l-.4-.4v9.79l.4-.4,7.8,7.8,4.49-4.5L62.49,58ZM51.05,65.9V60.43l-5.34,5.34,4.49,4.5,4.37-4.37ZM50.2,45.68l-4.49,4.5,5.34,5.33v-9Zm-5.75,1.37V39.5H43V50.06l1.87-1.87A1.73,1.73,0,0,1,44.45,47.05ZM34.7,13.1v3.5h6.6V13.1Zm0,0v3.5h6.6V13.1Zm9.75,33.95V39.5H43V50.06l1.87-1.87A1.73,1.73,0,0,1,44.45,47.05Zm5.75-1.37-4.49,4.5,5.34,5.33v-9Zm.85,20.22V60.43l-5.34,5.34,4.49,4.5,4.37-4.37ZM65.18,55.28l-1.87-1-2.2-1.12-1.66-.85,5.14-2.63,1.31-.67v5.51l4.39-4.38-4.49-4.5L58,53.48l-.4-.4v9.79l.4-.4,7.8,7.8,4.49-4.5L62.49,58Zm0,0-1.87-1-2.2-1.12-1.66-.85,5.14-2.63,1.31-.67v5.51l4.39-4.38-4.49-4.5L58,53.48l-.4-.4v9.79l.4-.4,7.8,7.8,4.49-4.5L62.49,58ZM51.05,65.9V60.43l-5.34,5.34,4.49,4.5,4.37-4.37ZM50.2,45.68l-4.49,4.5,5.34,5.33v-9Zm-5.75,1.37V39.5H43V50.06l1.87-1.87A1.73,1.73,0,0,1,44.45,47.05ZM34.7,13.1v3.5h6.6V13.1Zm0,0v3.5h6.6V13.1Zm9.75,33.95V39.5H43V50.06l1.87-1.87A1.73,1.73,0,0,1,44.45,47.05Zm5.75-1.37-4.49,4.5,5.34,5.33v-9Zm.85,20.22V60.43l-5.34,5.34,4.49,4.5,4.37-4.37Zm0,0V60.43l-5.34,5.34,4.49,4.5,4.37-4.37ZM50.2,45.68l-4.49,4.5,5.34,5.33v-9Zm-5.75,1.37V39.5H43V50.06l1.87-1.87A1.73,1.73,0,0,1,44.45,47.05ZM34.7,13.1v3.5h6.6V13.1Zm0,0v3.5h6.6V13.1Zm0,0v3.5h6.6V13.1Z" transform="translate(0 0)"/><path class="cls-1" d="M65.8,42.86l-1.52,1.52L65.9,43ZM42.88,50.18l.12.12v-.24Zm23,4.38,4.39-4.38-4.49-4.5L58,53.48l-7-6.95-.85-.85-4.49,4.5,5.34,5.33L53.51,58l-2.46,2.46-5.34,5.34,4.49,4.5,4.37-4.37,3-3,.4-.4,7.8,7.8,4.49-4.5L62.49,58Zm1.56,11.21L65.8,67.44,58,59.64l-7.8,7.8-1.66-1.67,2.51-2.51L56.34,58l-5.29-5.28-2.51-2.51,1.66-1.67.85.85,6.55,6.55.4.4,3.11-3.11-1.66-.85,5.14-2.63,1.21-1.21,1.66,1.67L65.9,51.74l-2.59,2.58L59.66,58Z" transform="translate(0 0)"/><polygon class="cls-1" points="62.49 57.97 70.29 65.77 65.8 70.27 58 62.47 57.6 62.87 54.57 65.9 50.2 70.27 45.71 65.77 51.05 60.43 53.51 57.97 51.05 55.51 45.71 50.18 50.2 45.68 51.05 46.53 58 53.48 65.8 45.68 70.29 50.18 65.9 54.56 62.49 57.97"/></svg>