<?xml version="1.0" encoding="UTF-8" standalone="no"?>
<svg xmlns:xlink="http://www.w3.org/1999/xlink" height="75.95px" width="76.0px" xmlns="http://www.w3.org/2000/svg">
  <g transform="matrix(1.0, 0.0, 0.0, 1.0, 38.0, 38.0)">
    <path d="M8.3 -15.05 L6.5 -13.25 -4.0 -23.75 Q-8.15 -27.85 -13.9 -27.85 -19.65 -27.85 -23.75 -23.75 -27.85 -19.65 -27.85 -13.9 -27.85 -8.15 -23.75 -4.0 L-20.5 -0.8 -15.5 -5.75 -18.8 -9.0 Q-20.8 -11.0 -20.8 -13.9 -20.8 -16.75 -18.8 -18.8 -16.75 -20.8 -13.9 -20.8 -11.0 -20.8 -9.0 -18.8 L1.55 -8.25 -15.05 8.3 Q-15.65 8.95 -15.65 9.85 -15.65 10.7 -15.05 11.3 L0.9 27.25 Q1.55 27.9 2.4 27.9 3.3 27.9 3.9 27.25 L27.25 3.9 Q27.9 3.3 27.9 2.4 27.9 1.55 27.25 0.9 L11.3 -15.05 Q10.7 -15.65 9.85 -15.65 8.95 -15.65 8.3 -15.05 M-31.0 -38.0 L31.0 -38.0 Q38.0 -38.0 38.0 -31.0 L38.0 30.95 Q38.0 37.95 31.0 37.95 L-31.0 37.95 Q-38.0 37.95 -38.0 30.95 L-38.0 -31.0 Q-38.0 -38.0 -31.0 -38.0 M7.65 4.7 L11.95 8.95 Q12.55 9.55 12.55 10.45 12.55 11.3 11.95 11.95 11.3 12.55 10.45 12.55 9.55 12.55 8.95 11.95 L4.7 7.65 Q2.35 8.2 0.8 6.6 -0.4 5.4 -0.4 3.65 -0.4 1.95 0.8 0.8 1.95 -0.4 3.65 -0.4 5.4 -0.4 6.6 0.8 8.2 2.35 7.65 4.7" fill="#ffffff" fill-rule="evenodd" stroke="none"/>
  </g>
</svg>
