<?xml version="1.0" encoding="UTF-8" standalone="no"?>
<svg xmlns:xlink="http://www.w3.org/1999/xlink" height="75.95px" width="76.0px" xmlns="http://www.w3.org/2000/svg">
  <g transform="matrix(1.0, 0.0, 0.0, 1.0, 38.0, 38.0)">
    <path d="M-31.0 -38.0 L31.0 -38.0 Q38.0 -38.0 38.0 -31.0 L38.0 30.95 Q38.0 37.95 31.0 37.95 L-31.0 37.95 Q-38.0 37.95 -38.0 30.95 L-38.0 -31.0 Q-38.0 -38.0 -31.0 -38.0 M16.75 -16.5 L8.65 -16.5 8.65 -19.3 11.0 -19.3 Q12.35 -19.3 13.35 -20.25 14.3 -21.2 14.3 -22.55 L14.3 -24.6 Q14.3 -26.0 13.35 -26.9 12.35 -27.85 11.0 -27.85 L-11.05 -27.85 Q-12.4 -27.85 -13.35 -26.9 -14.3 -26.0 -14.3 -24.6 L-14.3 -22.55 Q-14.3 -21.2 -13.35 -20.25 -12.4 -19.3 -11.05 -19.3 L-8.65 -19.3 -8.65 -16.5 -16.75 -16.5 Q-18.1 -16.5 -19.0 -15.55 -20.0 -14.55 -20.0 -13.2 L-20.0 24.65 Q-20.0 26.0 -19.0 26.95 -18.1 27.9 -16.75 27.9 L16.75 27.9 Q18.1 27.9 19.05 26.95 20.0 26.0 20.0 24.65 L20.0 -13.2 Q20.0 -14.55 19.05 -15.55 18.1 -16.5 16.75 -16.5 M-0.1 -10.45 Q4.05 -10.45 6.9 -7.6 9.75 -4.65 9.75 -0.55 9.75 2.15 8.4 4.45 7.1 6.65 4.9 8.0 L4.9 11.3 -5.0 11.3 -5.0 8.0 Q-7.25 6.65 -8.55 4.45 -9.9 2.15 -9.9 -0.55 -9.9 -4.65 -7.0 -7.6 -4.15 -10.45 -0.1 -10.45 M3.85 2.05 Q4.95 2.05 5.7 1.3 6.45 0.5 6.45 -0.55 6.45 -1.65 5.7 -2.4 4.95 -3.15 3.85 -3.15 2.8 -3.15 2.05 -2.4 1.25 -1.65 1.25 -0.55 1.25 0.5 2.05 1.3 2.8 2.05 3.85 2.05 M-4.0 2.05 Q-2.95 2.05 -2.15 1.3 -1.4 0.5 -1.4 -0.55 -1.4 -1.65 -2.15 -2.4 -2.95 -3.15 -4.0 -3.15 -5.05 -3.15 -5.8 -2.4 -6.6 -1.65 -6.6 -0.55 -6.6 0.5 -5.8 1.3 -5.05 2.05 -4.0 2.05 M10.4 20.6 L9.1 23.6 -0.1 19.55 -9.25 23.6 -10.55 20.6 -4.15 17.7 -10.55 14.95 -9.25 11.9 -0.1 16.0 9.1 11.9 10.4 14.95 4.0 17.7 10.4 20.6" fill="#ffffff" fill-rule="evenodd" stroke="none"/>
  </g>
</svg>
