<svg id="Layer_1" data-name="Layer 1" xmlns="http://www.w3.org/2000/svg" viewBox="0 0 76 75.95"><defs><style>.cls-1{fill:#fff;fill-rule:evenodd;}</style></defs><path class="cls-1" d="M69,0H7Q0,0,0,7V69q0,7,7,7H69q7,0,7-7V7Q76,0,69,0ZM45.4,9.35a10.22,10.22,0,0,1,4.19.47,9.11,9.11,0,0,1,3.12,1.76c-2.54,2.91-7.47,11.4-10,14.32ZM45.79,32a10.94,10.94,0,0,1,0,15.52A10.58,10.58,0,0,1,38,50.78a10.76,10.76,0,0,1-7.83-3.23,11,11,0,0,1,0-15.52A10.76,10.76,0,0,1,38,28.8,10.58,10.58,0,0,1,45.79,32Zm-8-25.48a10.3,10.3,0,0,1,4.14.76L38,24.78c-1.29-3.49-2.59-14-3.88-17.47A10.18,10.18,0,0,1,37.74,6.55ZM26.41,9.82a10.22,10.22,0,0,1,4.19-.47L33.3,25.9c-2.54-2.92-7.47-11.41-10-14.32A9.11,9.11,0,0,1,26.41,9.82Zm-8.2,6.44a8,8,0,0,1,3.2-1.41l7.93,13c-3-1.71-10.08-7.7-13.06-9.41A6.83,6.83,0,0,1,18.21,16.26ZM56,64.9H20V60.2a7.58,7.58,0,0,1,2.27-5.52,7.5,7.5,0,0,1,5.53-2.3H48.19A7.8,7.8,0,0,1,56,60.2ZM46.66,27.84l7.93-13a8,8,0,0,1,3.2,1.41,6.83,6.83,0,0,1,1.93,2.17C56.74,20.14,49.65,26.13,46.66,27.84Z" transform="translate(0 0)"/></svg>