<?xml version="1.0" encoding="UTF-8" standalone="no"?>
<svg xmlns:xlink="http://www.w3.org/1999/xlink" height="75.95px" width="76.0px" xmlns="http://www.w3.org/2000/svg">
  <g transform="matrix(1.0, 0.0, 0.0, 1.0, 38.0, 38.0)">
    <path d="M-31.0 -38.0 L31.0 -38.0 Q38.0 -38.0 38.0 -31.0 L38.0 30.95 Q38.0 37.95 31.0 37.95 L-31.0 37.95 Q-38.0 37.95 -38.0 30.95 L-38.0 -31.0 Q-38.0 -38.0 -31.0 -38.0 M-1.25 1.4 Q-0.5 2.2 4.45 -1.0 6.95 -2.5 9.3 -4.3 L11.85 -5.0 23.6 -16.75 16.85 -23.45 5.05 -11.7 4.35 -9.2 1.05 -4.35 Q-2.05 0.6 -1.25 1.4 M20.5 -27.2 L17.9 -24.7 24.8 -17.8 27.35 -20.35 20.5 -27.2 M20.5 -7.2 L8.1 5.6 9.3 16.0 0.05 11.4 -9.25 16.0 -8.0 5.6 -15.0 -1.65 -5.0 -3.9 3.8 -19.25 0.05 -25.9 -9.15 -9.65 -27.85 -5.65 -14.9 7.85 -17.2 27.2 0.05 18.7 17.25 27.2 14.95 7.85 27.9 -5.65 20.5 -7.2" fill="#ffffff" fill-rule="evenodd" stroke="none"/>
  </g>
</svg>
