<?xml version="1.0" encoding="UTF-8" standalone="no"?>
<svg xmlns:xlink="http://www.w3.org/1999/xlink" height="75.95px" width="76.0px" xmlns="http://www.w3.org/2000/svg">
  <g transform="matrix(1.0, 0.0, 0.0, 1.0, 38.0, 38.0)">
    <path d="M-31.0 -38.0 L31.0 -38.0 Q38.0 -38.0 38.0 -31.0 L38.0 30.95 Q38.0 37.95 31.0 37.95 L-31.0 37.95 Q-38.0 37.95 -38.0 30.95 L-38.0 -31.0 Q-38.0 -38.0 -31.0 -38.0 M11.35 -9.0 L12.25 -9.0 13.85 -9.95 Q17.65 -11.15 17.65 -12.35 17.65 -13.15 15.8 -14.1 14.85 -14.45 13.85 -14.85 L12.25 -15.75 11.35 -15.75 11.35 -17.95 12.25 -17.95 13.85 -18.9 15.8 -19.6 Q17.65 -20.55 17.65 -21.35 17.65 -22.1 15.8 -23.0 L12.25 -24.7 11.35 -24.7 11.35 -26.25 Q11.35 -26.9 10.85 -27.45 10.35 -27.9 9.65 -27.9 L-13.55 -27.9 Q-14.25 -27.9 -14.7 -27.45 L-15.15 -26.25 -15.15 20.5 -17.65 20.5 -17.65 25.45 Q-17.65 26.45 -16.95 27.15 -16.25 27.9 -15.2 27.9 L11.4 27.9 Q12.4 27.9 13.1 27.15 13.85 26.45 13.85 25.45 L13.85 20.5 11.35 20.5 11.35 17.65 12.25 17.65 13.85 16.8 Q14.85 16.45 15.8 16.05 17.65 15.1 17.65 14.3 17.65 13.55 15.8 12.65 L12.25 10.95 11.35 10.95 11.35 8.8 12.25 8.8 13.85 7.9 15.8 7.1 Q17.65 6.2 17.65 5.45 17.65 4.65 15.8 3.7 L13.85 3.0 12.25 2.05 11.35 2.05 11.35 -0.1 12.25 -0.1 13.85 -1.0 15.8 -1.8 Q17.65 -2.7 17.65 -3.5 17.65 -4.3 15.8 -5.2 14.85 -5.55 13.85 -5.95 L12.25 -6.85 11.35 -6.85 11.35 -9.0 M8.05 -24.6 L8.05 -18.25 -11.9 -18.25 -11.9 -24.6 8.05 -24.6 M-11.9 -8.1 L-11.9 -14.95 8.05 -14.95 8.05 -8.1 -11.9 -8.1" fill="#ffffff" fill-rule="evenodd" stroke="none"/>
  </g>
</svg>
