<?xml version="1.0" encoding="UTF-8" standalone="no"?>
<svg xmlns:xlink="http://www.w3.org/1999/xlink" height="75.95px" width="76.0px" xmlns="http://www.w3.org/2000/svg">
  <g transform="matrix(1.0, 0.0, 0.0, 1.0, 38.0, 38.0)">
    <path d="M-31.0 -38.0 L31.0 -38.0 Q38.0 -38.0 38.0 -31.0 L38.0 30.95 Q38.0 37.95 31.0 37.95 L-31.0 37.95 Q-38.0 37.95 -38.0 30.95 L-38.0 -31.0 Q-38.0 -38.0 -31.0 -38.0 M1.55 -3.25 L-2.65 3.0 1.55 3.0 3.65 -0.5 3.7 -0.5 5.65 3.0 10.1 3.0 6.0 -3.25 9.55 -8.9 5.6 -8.9 3.9 -5.8 3.85 -5.8 2.1 -8.9 -2.25 -8.9 1.55 -3.25 M-4.3 -22.15 Q3.05 -22.15 8.3 -16.95 13.55 -11.65 13.55 -4.3 13.55 3.05 8.3 8.3 3.05 13.55 -4.3 13.55 -11.65 13.55 -16.95 8.3 -22.15 3.05 -22.15 -4.3 -22.15 -11.65 -16.95 -16.95 -11.65 -22.15 -4.3 -22.15 M-4.3 -27.9 Q-14.1 -27.9 -20.95 -21.0 -27.9 -14.1 -27.9 -4.3 -27.9 5.45 -20.95 12.35 -14.1 19.3 -4.3 19.3 5.5 19.3 12.35 12.35 19.3 5.5 19.3 -4.3 19.3 -14.1 12.35 -21.0 5.5 -27.9 -4.3 -27.9 M-9.3 -3.55 L-13.75 -3.55 -13.75 -3.6 -9.35 -9.0 -9.3 -9.0 -9.3 -3.55 M-9.3 -0.55 L-9.3 3.0 -5.5 3.0 -5.5 -0.55 -3.15 -0.55 -3.15 -3.55 -5.5 -3.55 -5.5 -13.1 -9.35 -13.1 -16.75 -4.2 -16.75 -0.55 -9.3 -0.55 M18.15 10.75 L10.75 18.15 20.55 27.9 27.9 20.5 18.15 10.75" fill="#ffffff" fill-rule="evenodd" stroke="none"/>
  </g>
</svg>
