<?xml version="1.0" encoding="UTF-8" standalone="no"?>
<svg xmlns:xlink="http://www.w3.org/1999/xlink" height="75.95px" width="76.0px" xmlns="http://www.w3.org/2000/svg">
  <g transform="matrix(1.0, 0.0, 0.0, 1.0, 38.0, 38.0)">
    <path d="M-31.0 -38.0 L31.0 -38.0 Q38.0 -38.0 38.0 -31.0 L38.0 30.95 Q38.0 37.95 31.0 37.95 L-31.0 37.95 Q-38.0 37.95 -38.0 30.95 L-38.0 -31.0 Q-38.0 -38.0 -31.0 -38.0 M2.35 22.15 L-21.35 22.15 -21.9 21.9 -22.15 21.35 -22.15 -21.35 -21.9 -21.9 -21.35 -22.15 2.35 -22.15 3.0 -21.9 3.2 -21.35 3.2 -16.55 -2.05 -16.55 6.0 -5.15 14.05 -16.55 8.95 -16.55 8.95 -22.95 Q8.95 -24.95 7.5 -26.45 6.1 -27.9 4.0 -27.9 L-22.95 -27.9 Q-25.0 -27.9 -26.45 -26.45 -27.9 -25.0 -27.9 -22.95 L-27.9 22.95 Q-27.9 25.0 -26.45 26.45 -25.0 27.9 -22.95 27.9 L4.0 27.9 Q6.1 27.9 7.5 26.45 8.95 25.0 8.95 22.95 L8.95 12.2 3.2 12.2 3.2 21.35 3.0 21.9 2.35 22.15 M27.9 3.0 Q27.9 1.9 22.25 0.65 L16.55 -0.4 14.3 -1.65 -2.05 -1.65 -2.05 7.75 14.3 7.75 16.55 6.45 22.25 5.4 Q27.9 4.15 27.9 3.0 M-7.25 7.8 L-3.65 7.8 -3.65 -1.7 -7.25 -1.7 -7.25 7.8" fill="#ffffff" fill-rule="evenodd" stroke="none"/>
  </g>
</svg>
