<?xml version="1.0" encoding="UTF-8" standalone="no"?>
<svg xmlns:xlink="http://www.w3.org/1999/xlink" height="75.95px" width="76.0px" xmlns="http://www.w3.org/2000/svg">
  <g transform="matrix(1.0, 0.0, 0.0, 1.0, 38.0, 38.0)">
    <path d="M-31.0 -38.0 L31.0 -38.0 Q38.0 -38.0 38.0 -31.0 L38.0 30.95 Q38.0 37.95 31.0 37.95 L-31.0 37.95 Q-38.0 37.95 -38.0 30.95 L-38.0 -31.0 Q-38.0 -38.0 -31.0 -38.0 M27.2 0.0 Q28.25 -1.05 28.25 -2.55 28.25 -4.1 27.2 -5.15 26.2 -6.2 24.65 -6.2 23.2 -6.2 22.15 -5.15 L20.35 -3.4 Q16.95 -5.6 12.95 -6.0 L12.95 -9.4 15.25 -9.4 Q16.0 -9.4 16.55 -9.95 17.05 -10.45 17.05 -11.2 17.05 -12.0 16.55 -12.5 16.0 -13.0 15.25 -13.0 L7.05 -13.0 Q6.3 -13.0 5.75 -12.5 5.25 -12.0 5.25 -11.2 5.25 -10.45 5.75 -9.95 6.3 -9.4 7.05 -9.4 L9.35 -9.4 9.35 -6.0 Q2.95 -5.3 -1.5 -0.5 -5.85 4.35 -5.85 10.95 -5.85 18.0 -0.9 22.95 4.1 27.95 11.15 27.95 18.25 27.95 23.2 22.95 28.2 18.0 28.2 10.95 28.2 5.9 25.5 1.7 L27.2 0.0 M11.15 14.35 Q9.75 14.35 8.75 13.35 7.75 12.35 7.75 10.95 7.75 9.85 8.35 9.0 8.95 8.1 9.95 7.75 L9.95 0.4 Q9.95 -0.1 10.3 -0.4 10.65 -0.8 11.15 -0.8 11.65 -0.8 12.05 -0.4 L12.35 0.4 12.35 7.75 Q13.35 8.1 13.95 9.0 14.55 9.85 14.55 10.95 14.55 12.3 13.55 13.35 12.55 14.35 11.15 14.35 M-0.3 -15.85 L-2.65 -15.85 Q-3.2 -19.65 -5.9 -22.45 -8.65 -25.2 -12.5 -25.75 L-12.5 -28.05 -16.05 -28.05 -16.05 -25.75 Q-19.85 -25.2 -22.6 -22.45 -25.35 -19.65 -25.95 -15.85 L-28.2 -15.85 -28.2 -12.35 -25.95 -12.35 Q-25.35 -8.45 -22.6 -5.7 -19.85 -3.05 -16.05 -2.45 L-16.05 -0.2 -12.5 -0.2 -12.5 -2.45 Q-8.65 -3.0 -5.9 -5.7 -3.2 -8.45 -2.65 -12.35 L-0.3 -12.35 -0.3 -15.85 M-12.5 -6.05 L-12.5 -7.95 -16.05 -7.95 -16.05 -6.05 Q-18.4 -6.55 -20.15 -8.25 -21.85 -10.0 -22.35 -12.35 L-20.45 -12.35 -20.45 -15.85 -22.35 -15.85 Q-21.85 -18.25 -20.15 -20.0 -18.4 -21.65 -16.05 -22.2 L-16.05 -20.25 -12.5 -20.25 -12.5 -22.2 Q-10.2 -21.65 -8.4 -20.0 -6.75 -18.25 -6.2 -15.85 L-8.15 -15.85 -8.15 -12.35 -6.2 -12.35 Q-6.75 -10.0 -8.4 -8.25 -10.2 -6.55 -12.5 -6.05" fill="#ffffff" fill-rule="evenodd" stroke="none"/>
  </g>
</svg>
