<?xml version="1.0" encoding="UTF-8" standalone="no"?>
<svg xmlns:xlink="http://www.w3.org/1999/xlink" height="75.95px" width="76.0px" xmlns="http://www.w3.org/2000/svg">
  <g transform="matrix(1.0, 0.0, 0.0, 1.0, 38.0, 38.0)">
    <path d="M-7.75 0.35 Q-7.75 1.5 -2.0 2.85 L3.7 3.85 6.05 5.15 22.6 5.15 22.6 -4.35 6.05 -4.35 3.7 -3.1 -2.0 -2.05 Q-7.75 -0.7 -7.75 0.35 M27.9 -4.45 L24.25 -4.45 24.25 5.25 27.9 5.25 27.9 -4.45 M-2.9 6.8 Q-6.9 5.95 -8.75 4.95 -11.85 3.25 -11.85 0.35 -11.85 -2.45 -8.75 -4.15 -6.9 -5.15 -2.9 -6.0 L1.0 -6.8 1.0 -27.9 -24.6 -27.9 Q-26.0 -27.9 -26.95 -26.95 -27.9 -26.05 -27.9 -24.65 L-27.9 24.6 Q-27.9 25.95 -26.95 26.9 -26.0 27.9 -24.6 27.9 L1.0 27.9 1.0 7.6 -2.9 6.8 M-31.0 -38.0 L31.0 -38.0 Q38.0 -38.0 38.0 -31.0 L38.0 30.95 Q38.0 37.95 31.0 37.95 L-31.0 37.95 Q-38.0 37.95 -38.0 30.95 L-38.0 -31.0 Q-38.0 -38.0 -31.0 -38.0" fill="#ffffff" fill-rule="evenodd" stroke="none"/>
  </g>
</svg>
