<?xml version="1.0" encoding="UTF-8" standalone="no"?>
<svg xmlns:xlink="http://www.w3.org/1999/xlink" height="75.95px" width="76.0px" xmlns="http://www.w3.org/2000/svg">
  <g transform="matrix(1.0, 0.0, 0.0, 1.0, 38.0, 38.0)">
    <path d="M-31.0 -38.0 L31.0 -38.0 Q38.0 -38.0 38.0 -31.0 L38.0 30.95 Q38.0 37.95 31.0 37.95 L-31.0 37.95 Q-38.0 37.95 -38.0 30.95 L-38.0 -31.0 Q-38.0 -38.0 -31.0 -38.0 M16.05 -14.9 Q17.1 -15.95 17.1 -17.45 17.1 -18.95 16.05 -20.05 15.0 -21.05 13.5 -21.05 12.05 -21.05 10.95 -20.05 L9.2 -18.25 Q5.75 -20.45 1.8 -20.9 L1.8 -24.25 4.1 -24.25 Q4.85 -24.25 5.4 -24.85 5.9 -25.35 5.9 -26.1 5.9 -26.9 5.4 -27.4 4.85 -27.9 4.1 -27.9 L-4.1 -27.9 Q-4.9 -27.9 -5.4 -27.4 -5.9 -26.9 -5.9 -26.1 -5.9 -25.35 -5.4 -24.85 -4.9 -24.25 -4.1 -24.25 L-1.8 -24.25 -1.8 -20.9 Q-8.25 -20.2 -12.65 -15.4 -17.0 -10.5 -17.0 -3.95 -17.0 3.1 -12.05 8.1 -7.05 13.05 0.0 13.05 7.05 13.05 12.05 8.1 17.0 3.1 17.0 -3.95 17.0 -8.95 14.3 -13.15 L16.05 -14.9 M0.0 -0.5 Q-1.4 -0.5 -2.4 -1.55 -3.4 -2.5 -3.4 -3.95 -3.4 -5.0 -2.8 -5.85 -2.2 -6.8 -1.2 -7.1 L-1.2 -14.45 -0.9 -15.3 Q-0.5 -15.65 0.0 -15.65 0.5 -15.65 0.9 -15.3 L1.2 -14.45 1.2 -7.1 Q2.2 -6.8 2.8 -5.85 3.4 -5.0 3.4 -3.95 3.4 -2.55 2.35 -1.55 1.4 -0.5 0.0 -0.5 M-11.7 27.85 L-11.7 23.75 -21.1 23.75 -21.1 27.85 -11.7 27.85 M-8.35 27.9 L-4.75 27.9 -4.75 18.25 -8.35 18.25 -8.35 27.9 M-11.7 22.0 L-11.7 17.9 -27.2 17.9 -27.2 22.0 -11.7 22.0 M27.25 23.05 Q27.25 21.95 21.5 20.65 L15.75 19.6 13.45 18.25 -3.1 18.25 -3.1 27.8 13.45 27.8 15.75 26.55 21.5 25.5 Q27.25 24.2 27.25 23.05" fill="#ffffff" fill-rule="evenodd" stroke="none"/>
  </g>
</svg>
