<?xml version="1.0" encoding="UTF-8" standalone="no"?>
<svg xmlns:xlink="http://www.w3.org/1999/xlink" height="75.95px" width="76.0px" xmlns="http://www.w3.org/2000/svg">
  <g transform="matrix(1.0, 0.0, 0.0, 1.0, 38.0, 38.0)">
    <path d="M8.2 4.95 L14.85 -3.65 Q9.35 -5.4 6.2 -7.55 L9.0 -6.85 16.85 -6.45 Q19.7 -10.9 21.95 -15.55 17.8 -15.6 15.1 -16.55 L17.4 -16.95 Q20.3 -17.55 23.35 -18.8 24.85 -22.45 25.4 -25.55 L25.65 -27.9 Q22.85 -25.6 18.35 -24.05 L11.15 -22.05 Q10.8 -19.2 10.95 -17.5 10.1 -19.2 9.5 -21.55 L7.8 -20.95 Q-7.25 -14.85 -14.4 -0.25 -18.0 7.1 -18.7 13.95 -5.5 -3.0 8.55 -14.25 15.65 -19.9 20.7 -22.5 L20.05 -22.05 Q11.1 -15.95 1.65 -6.45 -12.75 8.05 -25.6 27.9 L-20.9 26.95 Q-17.95 21.6 -14.4 16.45 -6.2 16.3 1.2 11.2 -3.8 9.35 -7.05 7.15 L-3.95 8.0 4.55 8.6 8.2 4.95 M-31.0 -38.0 L31.0 -38.0 Q38.0 -38.0 38.0 -31.0 L38.0 30.95 Q38.0 37.95 31.0 37.95 L-31.0 37.95 Q-38.0 37.95 -38.0 30.95 L-38.0 -31.0 Q-38.0 -38.0 -31.0 -38.0" fill="#ffffff" fill-rule="evenodd" stroke="none"/>
  </g>
</svg>
