<?xml version="1.0" encoding="UTF-8" standalone="no"?>
<svg xmlns:xlink="http://www.w3.org/1999/xlink" height="75.95px" width="76.0px" xmlns="http://www.w3.org/2000/svg">
  <g transform="matrix(1.0, 0.0, 0.0, 1.0, 38.0, 38.0)">
    <path d="M-31.0 -38.0 L31.0 -38.0 Q38.0 -38.0 38.0 -31.0 L38.0 30.95 Q38.0 37.95 31.0 37.95 L-31.0 37.95 Q-38.0 37.95 -38.0 30.95 L-38.0 -31.0 Q-38.0 -38.0 -31.0 -38.0 M-14.6 -23.8 L-10.95 -20.25 Q-5.9 -22.95 0.0 -22.95 5.85 -22.95 10.95 -20.25 L14.55 -23.8 Q7.9 -27.9 0.0 -27.9 -7.95 -27.9 -14.6 -23.8 M19.35 -2.4 L16.2 -2.4 Q15.4 -7.75 11.6 -11.6 7.75 -15.4 2.45 -16.25 L2.45 -19.4 -2.45 -19.4 -2.45 -16.25 Q-7.75 -15.4 -11.6 -11.6 -15.4 -7.75 -16.25 -2.4 L-19.4 -2.4 -19.4 2.45 -16.25 2.45 Q-15.4 7.75 -11.6 11.6 -7.75 15.45 -2.45 16.25 L-2.45 19.4 2.45 19.4 2.45 16.25 Q7.75 15.45 11.6 11.6 15.4 7.75 16.2 2.45 L19.35 2.45 19.35 -2.4 M2.45 11.25 L2.45 8.55 -2.45 8.55 -2.45 11.25 Q-5.75 10.5 -8.15 8.15 -10.55 5.75 -11.3 2.45 L-8.6 2.45 -8.6 -2.4 -11.3 -2.4 Q-10.55 -5.7 -8.15 -8.1 -5.75 -10.5 -2.45 -11.25 L-2.45 -8.55 2.45 -8.55 2.45 -11.25 Q5.75 -10.5 8.15 -8.1 10.55 -5.7 11.2 -2.4 L8.5 -2.4 8.5 2.45 11.2 2.45 Q10.55 5.75 8.15 8.15 5.75 10.5 2.45 11.25 M14.55 23.8 L10.95 20.25 Q5.85 23.0 0.0 23.0 -5.9 23.0 -10.95 20.25 L-14.6 23.8 Q-7.95 27.9 0.0 27.9 7.9 27.9 14.55 23.8 M-23.0 0.0 Q-23.0 -5.9 -20.25 -10.95 L-23.8 -14.55 Q-27.9 -7.9 -27.9 0.0 -27.9 7.95 -23.8 14.55 L-20.25 10.95 Q-23.0 5.9 -23.0 0.0 M20.2 -10.95 Q22.95 -5.85 22.95 0.0 22.95 5.85 20.2 10.95 L23.75 14.55 Q27.9 7.85 27.9 0.0 27.9 -7.85 23.75 -14.55 L20.2 -10.95" fill="#ffffff" fill-rule="evenodd" stroke="none"/>
  </g>
</svg>
