<?xml version="1.0" encoding="UTF-8" standalone="no"?>
<svg xmlns:xlink="http://www.w3.org/1999/xlink" height="75.95px" width="76.0px" xmlns="http://www.w3.org/2000/svg">
  <g transform="matrix(1.0, 0.0, 0.0, 1.0, 38.0, 38.0)">
    <path d="M0.0 -20.3 Q-7.95 -20.3 -15.3 -17.3 -20.2 -15.35 -24.3 -12.25 L-27.9 -9.2 -20.2 -1.0 Q-16.2 -4.85 -11.05 -6.9 -5.75 -9.05 0.0 -9.05 5.75 -9.05 11.0 -6.9 16.15 -4.85 20.15 -1.0 L27.9 -9.2 Q22.3 -14.45 15.25 -17.3 7.95 -20.3 0.0 -20.3 M0.0 -5.0 Q-5.0 -5.0 -9.55 -3.1 -13.9 -1.3 -17.35 1.95 L-10.9 8.85 Q-6.3 4.45 0.0 4.45 6.3 4.45 10.9 8.85 L17.35 1.95 Q13.85 -1.3 9.5 -3.1 4.95 -5.0 0.0 -5.0 M-31.0 -38.0 L31.0 -38.0 Q38.0 -38.0 38.0 -31.0 L38.0 30.95 Q38.0 37.95 31.0 37.95 L-31.0 37.95 Q-38.0 37.95 -38.0 30.95 L-38.0 -31.0 Q-38.0 -38.0 -31.0 -38.0 M-8.1 11.8 L0.0 20.3 8.05 11.8 Q4.7 8.55 0.0 8.55 -4.65 8.55 -8.1 11.8" fill="#ffffff" fill-rule="evenodd" stroke="none"/>
  </g>
</svg>
