<?xml version="1.0" encoding="UTF-8" standalone="no"?>
<svg xmlns:xlink="http://www.w3.org/1999/xlink" height="75.95px" width="76.0px" xmlns="http://www.w3.org/2000/svg">
  <g transform="matrix(1.0, 0.0, 0.0, 1.0, 38.0, 38.0)">
    <path d="M-31.0 -38.0 L31.0 -38.0 Q38.0 -38.0 38.0 -31.0 L38.0 30.95 Q38.0 37.95 31.0 37.95 L-31.0 37.95 Q-38.0 37.95 -38.0 30.95 L-38.0 -31.0 Q-38.0 -38.0 -31.0 -38.0 M-2.85 -4.35 Q-1.65 -4.8 -0.9 -5.85 -0.1 -6.95 -0.1 -8.3 L-0.35 -9.5 -6.05 -27.9 -27.9 -27.9 -27.9 12.15 -14.05 12.15 Q-11.15 12.15 -9.05 10.05 -6.95 7.95 -6.95 5.0 L-6.95 -2.85 -2.85 -4.35 M24.75 15.25 Q23.4 15.25 22.45 16.2 21.6 17.0 21.55 18.3 L21.55 16.95 Q21.55 15.6 20.6 14.65 19.65 13.7 18.35 13.7 17.05 13.7 16.1 14.65 15.2 15.6 15.15 16.85 L15.15 15.4 Q15.15 14.1 14.25 13.15 13.25 12.2 11.95 12.2 10.65 12.2 9.75 13.15 8.85 14.05 8.8 15.3 L8.8 3.15 Q8.8 1.85 7.85 0.95 6.95 0.0 5.6 0.0 4.3 0.0 3.35 0.95 2.4 1.85 2.4 3.15 L2.4 18.2 Q2.35 16.65 1.25 15.6 0.1 14.4 -1.55 14.4 L-1.55 27.9 27.9 27.9 27.9 18.4 Q27.9 17.05 26.95 16.2 26.05 15.25 24.75 15.25" fill="#ffffff" fill-rule="evenodd" stroke="none"/>
  </g>
</svg>
