<?xml version="1.0" encoding="UTF-8" standalone="no"?>
<svg xmlns:xlink="http://www.w3.org/1999/xlink" height="75.95px" width="76.0px" xmlns="http://www.w3.org/2000/svg">
  <g transform="matrix(1.0, 0.0, 0.0, 1.0, 38.0, 38.0)">
    <path d="M-31.0 -38.0 L31.0 -38.0 Q38.0 -38.0 38.0 -31.0 L38.0 30.95 Q38.0 37.95 31.0 37.95 L-31.0 37.95 Q-38.0 37.95 -38.0 30.95 L-38.0 -31.0 Q-38.0 -38.0 -31.0 -38.0 M-4.3 -27.9 Q-14.1 -27.9 -20.95 -20.95 -27.9 -14.1 -27.9 -4.3 -27.9 5.45 -20.95 12.35 -14.1 19.3 -4.3 19.3 5.5 19.3 12.35 12.35 19.3 5.5 19.3 -4.3 19.3 -14.1 12.35 -20.95 5.45 -27.9 -4.3 -27.9 M-2.65 -8.95 L1.0 -3.35 -3.0 2.85 1.0 2.85 3.2 -0.7 3.25 -0.7 5.15 2.85 9.55 2.85 5.5 -3.4 8.95 -8.95 5.05 -8.95 3.4 -5.9 3.35 -5.9 1.65 -8.95 -2.65 -8.95 M-4.3 -22.15 Q3.05 -22.15 8.3 -16.95 13.55 -11.65 13.55 -4.3 13.55 3.05 8.3 8.3 3.05 13.55 -4.3 13.55 -11.65 13.55 -16.95 8.3 -22.15 3.05 -22.15 -4.3 -22.15 -11.65 -16.95 -16.95 -11.65 -22.15 -4.3 -22.15 M-15.8 1.0 L-16.05 2.85 -3.8 2.85 -3.8 -0.35 -10.65 -0.35 -10.65 -0.4 -5.45 -4.55 -4.65 -5.55 -4.05 -6.75 -3.85 -8.2 Q-3.85 -9.25 -4.25 -10.2 -4.6 -11.05 -5.35 -11.75 -6.1 -12.45 -7.15 -12.85 L-9.65 -13.25 Q-11.6 -13.25 -12.8 -12.65 -14.05 -12.1 -14.75 -11.05 -15.25 -10.4 -15.55 -9.4 L-15.85 -7.1 -12.2 -7.1 -12.0 -8.45 -11.5 -9.4 Q-10.9 -10.15 -9.75 -10.15 -8.75 -10.15 -8.25 -9.6 -7.7 -8.95 -7.7 -8.1 -7.7 -7.6 -8.0 -7.0 L-8.8 -6.1 -10.95 -4.4 -13.25 -2.65 -14.35 -1.6 -15.2 -0.4 -15.8 1.0 M18.15 10.75 L10.75 18.15 20.55 27.9 27.9 20.55 18.15 10.75" fill="#ffffff" fill-rule="evenodd" stroke="none"/>
  </g>
</svg>
