<?xml version="1.0" encoding="UTF-8" standalone="no"?>
<svg xmlns:xlink="http://www.w3.org/1999/xlink" height="75.95px" width="76.0px" xmlns="http://www.w3.org/2000/svg">
  <g transform="matrix(1.0, 0.0, 0.0, 1.0, 38.0, 38.0)">
    <path d="M-4.3 -27.9 Q-14.1 -27.9 -20.95 -21.0 -27.9 -14.1 -27.9 -4.3 -27.9 5.45 -20.95 12.35 -14.1 19.3 -4.3 19.3 5.5 19.3 12.35 12.35 19.3 5.5 19.3 -4.3 19.3 -14.1 12.35 -21.0 5.5 -27.9 -4.3 -27.9 M-2.3 -8.9 L1.5 -3.3 -2.6 2.95 1.5 2.95 3.65 -0.6 5.6 2.95 9.95 2.95 5.9 -3.3 9.4 -8.9 5.5 -8.9 3.8 -5.8 3.75 -5.8 2.05 -8.9 -2.3 -8.9 M-4.3 -22.15 Q3.05 -22.15 8.3 -16.95 13.55 -11.65 13.55 -4.3 13.55 3.05 8.3 8.3 3.05 13.55 -4.3 13.55 -11.65 13.55 -16.95 8.3 -22.15 3.05 -22.15 -4.3 -22.15 -11.65 -16.95 -16.95 -11.65 -22.15 -4.3 -22.15 M-31.0 -38.0 L31.0 -38.0 Q38.0 -38.0 38.0 -31.0 L38.0 30.95 Q38.0 37.95 31.0 37.95 L-31.0 37.95 Q-38.0 37.95 -38.0 30.95 L-38.0 -31.0 Q-38.0 -38.0 -31.0 -38.0 M-12.4 2.95 L-9.55 3.3 -7.15 3.0 Q-6.0 2.65 -5.15 2.1 -4.3 1.5 -3.8 0.5 -3.3 -0.35 -3.3 -1.65 -3.3 -3.2 -4.05 -4.2 -4.95 -5.15 -6.15 -5.5 L-6.15 -5.6 Q-5.15 -5.9 -4.4 -6.75 -3.75 -7.45 -3.75 -8.7 -3.75 -9.75 -4.2 -10.6 L-5.4 -12.0 -7.2 -12.85 -9.6 -13.1 -12.2 -12.75 Q-13.45 -12.3 -14.15 -11.65 L-15.3 -9.95 -15.75 -7.85 -12.15 -7.85 Q-12.1 -8.85 -11.5 -9.6 -10.9 -10.3 -9.65 -10.3 -8.6 -10.3 -8.15 -9.75 -7.55 -9.25 -7.55 -8.45 -7.55 -7.55 -8.25 -7.1 -8.9 -6.6 -10.0 -6.6 L-10.9 -6.6 -10.9 -3.95 -9.95 -3.95 Q-8.55 -3.95 -7.9 -3.4 -7.2 -2.95 -7.2 -1.85 -7.2 -0.85 -7.85 -0.3 -8.5 0.35 -9.65 0.35 -11.15 0.35 -11.85 -0.45 -12.45 -1.2 -12.6 -2.55 L-16.25 -2.55 Q-16.25 0.2 -14.45 1.75 -13.75 2.45 -12.4 2.95 M18.15 10.75 L10.75 18.15 20.55 27.9 27.9 20.5 18.15 10.75" fill="#ffffff" fill-rule="evenodd" stroke="none"/>
  </g>
</svg>
