<?xml version="1.0" encoding="UTF-8" standalone="no"?>
<svg xmlns:xlink="http://www.w3.org/1999/xlink" height="75.95px" width="76.0px" xmlns="http://www.w3.org/2000/svg">
  <g transform="matrix(1.0, 0.0, 0.0, 1.0, 38.0, 38.0)">
    <path d="M-31.0 -38.0 L31.0 -38.0 Q38.0 -38.0 38.0 -31.0 L38.0 30.95 Q38.0 37.95 31.0 37.95 L-31.0 37.95 Q-38.0 37.95 -38.0 30.95 L-38.0 -31.0 Q-38.0 -38.0 -31.0 -38.0 M30.95 -5.9 L30.0 -5.9 30.0 -5.25 28.75 -5.25 28.05 -5.9 27.9 -5.9 27.9 5.95 28.05 5.95 28.75 5.3 30.0 5.3 30.0 5.95 30.95 5.95 31.3 5.35 31.3 -5.35 30.95 -5.9 M-14.6 -4.05 L-29.5 -1.0 -31.3 -0.25 -31.3 0.25 -29.5 1.0 -14.6 4.05 -5.55 4.05 -5.55 4.4 -4.4 4.4 -4.4 4.05 -3.75 4.05 -3.75 4.4 -2.2 4.4 1.0 5.95 26.25 5.95 26.25 -5.9 1.0 -5.9 -2.2 -4.4 -3.75 -4.4 -3.75 -4.05 -4.4 -4.05 -4.4 -4.4 -5.55 -4.4 -5.55 -4.05 -14.6 -4.05 M0.15 -13.75 L0.15 -30.55 -30.95 -30.55 -30.95 -4.9 0.15 -13.75 M-30.95 4.9 L-30.95 30.55 0.15 30.55 0.15 13.75 -30.95 4.9" fill="#ffffff" fill-rule="evenodd" stroke="none"/>
  </g>
</svg>
